<svg width="40" height="40" viewBox="0 0 40 40" fill="none" xmlns="http://www.w3.org/2000/svg">
  <rect width="40" height="40" rx="8" fill="#1A1A1A"/>
  <circle cx="20" cy="20" r="12" fill="#00FF00"/>
  <path d="M20 14C16.6863 14 14 16.6863 14 20C14 23.3137 16.6863 26 20 26C23.3137 26 26 23.3137 26 20C26 16.6863 23.3137 14 20 14ZM18 18C18 17.4477 17.5523 17 17 17C16.4477 17 16 17.4477 16 18C16 18.5523 16.4477 19 17 19C17.5523 19 18 18.5523 18 18ZM23 18C23 17.4477 22.5523 17 22 17C21.4477 17 21 17.4477 21 18C21 18.5523 21.4477 19 22 19C22.5523 19 23 18.5523 23 18ZM16 21H24V22H16V21Z" fill="black"/>
</svg>
