<svg width="28" height="28" viewBox="0 0 28 28" fill="none" xmlns="http://www.w3.org/2000/svg">
  <rect width="28" height="28" rx="7" fill="#AB9FF2"/>
  <path fill-rule="evenodd" clip-rule="evenodd" d="M12.0596 18.1322C10.8913 19.9356 8.92176 22.1711 6.31428 22.1711C5.07544 22.1711 3.88889 21.6667 3.88889 19.4838C3.88889 13.8451 11.5728 5.13961 18.6995 5.13961C22.7531 5.13961 24.3889 7.9478 24.3889 11.1427C24.3889 15.2359 21.7123 19.949 19.0666 19.949C18.1985 19.949 17.7994 19.4838 17.7994 18.7476C17.7994 18.5552 17.8304 18.3427 17.8925 18.1322C16.9754 19.671 15.1578 21.0953 13.5811 21.0953C12.4181 21.0953 11.8095 20.3481 11.8095 19.2925C11.8095 18.9099 11.887 18.5194 12.0596 18.1322ZM21.6864 11.0286C21.6864 11.9702 21.1327 12.432 20.4932 12.432C19.8489 12.432 19.2952 11.9702 19.2952 11.0286C19.2952 10.087 19.8489 9.62524 20.4932 9.62524C21.1327 9.62524 21.6864 10.087 21.6864 11.0286ZM18.1988 11.0286C18.1988 11.9702 17.6451 12.432 17.0056 12.432C16.3613 12.432 15.8076 11.9702 15.8076 11.0286C15.8076 10.087 16.3613 9.62524 17.0056 9.62524C17.6451 9.62524 18.1988 10.087 18.1988 11.0286Z" fill="#FFFDF8"/>
</svg>
