<svg width="128" height="128" viewBox="0 0 128 128" fill="none" xmlns="http://www.w3.org/2000/svg">
  <rect width="128" height="128" rx="64" fill="#AB9FF2"/>
  <path d="M110.584 64.9142C110.584 54.5605 103.045 46.8009 93.6606 46.8009C93.3853 46.8009 93.222 46.8358 92.9517 46.8555C89.2019 36.5023 79.2042 30 67.9545 30C54.3979 30 42.8717 39.418 40.1249 52.1825C39.8842 52.1628 39.6337 52.1529 39.3684 52.1529C29.9893 52.1529 22.4699 59.9027 22.4699 69.4897C22.4699 76.5474 26.8372 82.5308 32.9155 85.2289C32.8828 85.5844 32.8599 85.9399 32.8599 86.3051C32.8599 96.9014 41.3661 105.478 51.8729 105.478C58.5283 105.478 64.1337 102.21 67.5858 97.8079C71.0379 102.21 77.2967 105.478 83.9472 105.478C94.454 105.478 102.96 96.9014 102.96 86.3051C102.96 85.9497 102.937 85.6039 102.904 85.2584C108.983 82.5504 110.584 76.5572 110.584 64.9142Z" fill="url(#paint0_linear_7203_13583)"/>
  <path d="M83.9472 105.477C77.2967 105.477 71.0379 102.21 67.5858 97.8076C64.1337 102.21 58.5283 105.477 51.8729 105.477C41.3661 105.477 32.8599 96.9006 32.8599 86.3043C32.8599 85.9392 32.8828 85.5836 32.9155 85.2281C26.8372 82.53 22.4699 76.5467 22.4699 69.489C22.4699 59.902 29.9893 52.1521 39.3684 52.1521C39.6337 52.1521 39.8842 52.162 40.1249 52.1817C42.8717 39.4173 54.3979 29.9993 67.9545 29.9993C79.2042 29.9993 89.2019 36.5015 92.9517 46.8547C93.222 46.835 93.3853 46.8002 93.6606 46.8002C103.045 46.8002 110.584 54.5598 110.584 64.9134C110.584 76.5565 108.983 82.5497 102.904 85.2576C102.937 85.6032 102.96 85.949 102.96 86.3043C102.96 96.9006 94.454 105.477 83.9472 105.477Z" fill="url(#paint1_linear_7203_13583)"/>
  <path d="M90.5346 77.6033C90.5346 79.4889 88.9959 81.013 87.0918 81.013C85.1877 81.013 83.6489 79.4889 83.6489 77.6033V65.9738C83.6489 64.0882 85.1877 62.5641 87.0918 62.5641C88.9959 62.5641 90.5346 64.0882 90.5346 65.9738V77.6033Z" fill="white"/>
  <path d="M78.5576 77.6033C78.5576 79.4889 77.0188 81.013 75.1147 81.013C73.2107 81.013 71.6719 79.4889 71.6719 77.6033V65.9738C71.6719 64.0882 73.2107 62.5641 75.1147 62.5641C77.0188 62.5641 78.5576 64.0882 78.5576 65.9738V77.6033Z" fill="white"/>
  <path d="M66.5853 77.6033C66.5853 79.4889 65.0465 81.013 63.1425 81.013C61.2384 81.013 59.6996 79.4889 59.6996 77.6033V65.9738C59.6996 64.0882 61.2384 62.5641 63.1425 62.5641C65.0465 62.5641 66.5853 64.0882 66.5853 65.9738V77.6033Z" fill="white"/>
  <path d="M54.6033 77.6033C54.6033 79.4889 53.0645 81.013 51.1605 81.013C49.2564 81.013 47.7176 79.4889 47.7176 77.6033V65.9738C47.7176 64.0882 49.2564 62.5641 51.1605 62.5641C53.0645 62.5641 54.6033 64.0882 54.6033 65.9738V77.6033Z" fill="white"/>
  <defs>
    <linearGradient id="paint0_linear_7203_13583" x1="40.3699" y1="87.6876" x2="111.785" y2="40.1581" gradientUnits="userSpaceOnUse">
      <stop offset="0.08" stop-color="#9945FF"/>
      <stop offset="0.3" stop-color="#8752F3"/>
      <stop offset="0.5" stop-color="#5497D5"/>
      <stop offset="0.6" stop-color="#43B4CA"/>
      <stop offset="0.72" stop-color="#28E0B9"/>
      <stop offset="0.97" stop-color="#19FB9B"/>
    </linearGradient>
    <linearGradient id="paint1_linear_7203_13583" x1="57.3553" y1="95.5171" x2="76.2245" y2="22.9507" gradientUnits="userSpaceOnUse">
      <stop stop-color="#9945FF"/>
      <stop offset="0.14" stop-color="#8752F3"/>
      <stop offset="0.57" stop-color="#5497D5"/>
      <stop offset="0.79" stop-color="#43B4CA"/>
      <stop offset="0.97" stop-color="#28E0B9"/>
      <stop offset="1" stop-color="#19FB9B"/>
    </linearGradient>
  </defs>
</svg>
