<svg width="40" height="40" viewBox="0 0 40 40" fill="none" xmlns="http://www.w3.org/2000/svg">
  <rect width="40" height="40" rx="8" fill="#AB9FF2"/>
  <path d="M30 17.5C30 13.9101 27.0899 11 23.5 11H16.5C12.9101 11 10 13.9101 10 17.5V22.5C10 26.0899 12.9101 29 16.5 29H23.5C27.0899 29 30 26.0899 30 22.5V17.5Z" fill="white"/>
  <path d="M23.5 17.5C22.1193 17.5 21 18.6193 21 20C21 21.3807 22.1193 22.5 23.5 22.5C24.8807 22.5 26 21.3807 26 20C26 18.6193 24.8807 17.5 23.5 17.5Z" fill="#AB9FF2"/>
</svg>
