<svg width="40" height="40" viewBox="0 0 40 40" fill="none" xmlns="http://www.w3.org/2000/svg">
  <rect width="40" height="40" rx="8" fill="#6FBCF0"/>
  <path d="M20 8C13.373 8 8 13.373 8 20C8 26.627 13.373 32 20 32C26.627 32 32 26.627 32 20C32 13.373 26.627 8 20 8ZM20 28C15.589 28 12 24.411 12 20C12 15.589 15.589 12 20 12C24.411 12 28 15.589 28 20C28 24.411 24.411 28 20 28Z" fill="white"/>
  <path d="M20 16C17.791 16 16 17.791 16 20C16 22.209 17.791 24 20 24C22.209 24 24 22.209 24 20C24 17.791 22.209 16 20 16Z" fill="white"/>
</svg>
